<svg width="64" height="53" viewBox="0 0 64 53" fill="none" xmlns="http://www.w3.org/2000/svg">
<path d="M21.0951 29.9361C18.706 30.6854 17.1386 31.9992 16.106 33.312C17.095 32.3555 18.4197 31.4778 20.2066 30.918C22.0343 30.3455 23.5936 30.3496 24.8819 30.6244V29.5109C23.7828 29.3999 22.5228 29.4884 21.0951 29.9361ZM15.9969 20.5764L7.12415 23.1597C7.12415 23.1597 7.28582 23.4121 7.58528 23.749L15.1082 21.5582C15.1082 21.5582 15.0016 23.0764 14.0759 24.4344C15.827 22.9702 15.9969 20.5764 15.9969 20.5764ZM23.4239 43.6214C10.9376 47.338 4.33153 31.3462 2.33148 23.0458C1.40742 19.2145 1.00404 16.3127 0.896526 14.4401C0.884979 14.2457 0.890318 14.0818 0.902755 13.9315C0.255031 13.9748 -0.0550741 14.3469 0.0080223 15.4222C0.115534 17.2937 0.518919 20.1953 1.44297 24.0279C3.44212 32.3271 10.0491 48.3189 22.5354 44.6022C25.2533 43.7931 27.2951 42.3192 28.8279 40.4379C27.4151 41.848 25.6469 42.9585 23.4239 43.6214ZM25.7703 10.7892V11.7714H30.668C30.5675 11.4236 30.4662 11.1104 30.3657 10.7892H25.7703Z" fill="#2D4552"/>
<path d="M31.7628 18.8774C33.9654 19.5687 35.1303 21.2752 35.746 22.7856L38.2018 23.5564C38.2018 23.5564 37.8668 18.2706 33.5406 16.9126C29.4934 15.6418 27.003 19.3978 26.7 19.8838C27.8773 18.9569 29.5965 18.1979 31.7628 18.8774ZM51.3119 22.8099C47.261 21.5334 44.7714 25.2972 44.4729 25.7764C45.6512 24.8505 47.3695 24.0913 49.5348 24.7739C51.7339 25.4662 52.8978 27.1708 53.5154 28.682L55.9748 29.4558C55.9748 29.4558 55.6344 24.169 51.3119 22.8099ZM48.872 36.7466L28.4424 30.4348C28.4424 30.4348 28.6636 31.674 29.5122 33.2785L46.7129 38.5927C48.129 37.6873 48.872 36.7466 48.872 36.7466ZM34.7081 50.3327C18.5319 45.5397 20.4875 22.762 23.1051 11.9684C24.1828 7.52033 25.2907 4.21411 26.2096 1.99794C25.6614 1.8732 25.2073 2.19234 24.7586 3.20077C23.783 5.38751 22.5355 8.94797 21.3282 13.9323C18.7114 24.7257 16.7557 47.5027 32.9312 52.2957C40.5556 54.553 46.4951 51.1222 50.9227 45.7342C46.72 49.9409 41.3543 52.2995 34.7081 50.3327Z" fill="#2D4552"/>
<path d="M25.7705 38.2836V33.6871L14.2146 37.3084C14.2146 37.3084 15.0685 31.8254 21.0952 29.936C22.9229 29.3636 24.4823 29.3674 25.7705 29.6424V10.7892H31.5566C30.9266 8.63781 30.3172 6.98142 29.8053 5.83047C28.9586 3.92558 28.0905 5.18832 26.1198 7.00986C24.7319 8.29128 21.2241 11.025 15.9455 12.597C10.6668 14.17 6.39923 13.7529 4.6187 13.4121C2.09441 12.9308 0.774077 12.3182 0.897592 14.4401C1.00509 16.3116 1.40849 19.2134 2.33253 23.0458C4.33169 31.3451 10.9386 47.3369 23.425 43.6203C26.6866 42.6491 28.9887 40.7294 30.5845 38.2825H25.7705V38.2836ZM7.12342 23.1597L15.997 20.5763C15.997 20.5763 15.7384 24.3489 12.4119 25.3181C9.08432 26.2862 7.12342 23.1597 7.12342 23.1597Z" fill="#E2574C"/>
<path d="M59.1659 11.0073C56.8593 11.4541 51.3256 12.0109 44.4868 9.98502C37.6462 7.96047 33.1075 4.41952 31.3093 2.7551C28.7602 0.395504 27.6389 -1.24433 26.5354 1.23607C25.5598 3.4238 24.3122 6.98434 23.1047 11.9687C20.488 22.762 18.5324 45.539 34.7077 50.332C50.8797 55.1208 59.4893 34.3135 62.106 23.5191C63.3135 18.5358 63.843 14.7622 63.9888 12.329C64.1549 9.57277 62.4418 10.3729 59.1659 11.0073ZM26.6668 19.9371C26.6668 19.9371 29.2159 15.5556 33.5393 16.9137C37.8655 18.2717 38.2005 23.5574 38.2005 23.5574L26.6668 19.9371ZM37.2205 39.5984C29.6158 37.1366 28.4429 30.4348 28.4429 30.4348L48.8716 36.7469C48.8716 36.7469 44.748 42.0295 37.2205 39.5984ZM44.4432 25.8256C44.4432 25.8256 46.9888 21.4472 51.3115 22.8091C55.634 24.1692 55.9744 29.455 55.9744 29.455L44.4432 25.8256Z" fill="#2EAD33"/>
<path d="M21.7322 34.9528L14.2146 37.3075C14.2146 37.3075 15.0312 32.1662 20.5691 30.1287L16.3123 12.4735L15.9444 12.597C10.6658 14.1702 6.39827 13.7529 4.61773 13.4121C2.09344 12.931 0.773113 12.3182 0.896614 14.4403C1.00413 16.3118 1.40751 19.2134 2.33157 23.046C4.33073 31.3451 10.9377 47.3369 23.424 43.6203L23.7918 43.4927L21.7322 34.9528ZM7.12334 23.1599L15.997 20.5764C15.997 20.5764 15.7383 24.3489 12.4117 25.3181C9.08424 26.2862 7.12334 23.1599 7.12334 23.1599Z" fill="#D65348"/>
<path d="M37.5635 39.6906L37.2195 39.5982C29.6149 37.1366 28.442 30.4348 28.442 30.4348L38.9763 33.689L44.5533 10.0047L44.4859 9.98502C37.6452 7.96047 33.1068 4.41952 31.3084 2.7551C28.7592 0.395504 27.6379 -1.24433 26.5344 1.23607C25.5598 3.4238 24.3122 6.98434 23.1047 11.9687C20.488 22.762 18.5324 45.5389 34.7077 50.3317L35.0392 50.4143L37.5635 39.6906ZM26.6668 19.9371C26.6668 19.9371 29.2159 15.5556 33.5393 16.9137C37.8655 18.2717 38.2005 23.5574 38.2005 23.5574L26.6668 19.9371Z" fill="#1D8D22"/>
<path d="M22.1148 34.8321L20.0988 35.4644C20.5751 38.4317 21.4146 41.2794 22.7322 43.7951C22.9616 43.7391 23.1891 43.691 23.4227 43.6203C24.0349 43.4378 24.6026 43.2117 25.1491 42.9653C23.6769 40.5508 22.7029 37.7699 22.1148 34.8321ZM21.3276 13.9326C20.2916 18.2059 19.3648 24.3567 19.6199 30.5261C20.0765 30.3072 20.5589 30.1031 21.0948 29.9351L21.468 29.8429C21.013 23.253 21.9966 16.5377 23.1045 11.9686C23.3854 10.8128 23.667 9.73769 23.9477 8.73517C23.4956 9.05317 23.0087 9.37912 22.4541 9.71499C22.0802 10.9907 21.7025 12.385 21.3276 13.9326Z" fill="#C04B41"/>
</svg>
